<?xml version="1.0" standalone="no"?>
<!DOCTYPE svg PUBLIC "-//W3C//DTD SVG 20010904//EN"
 "http://www.w3.org/TR/2001/REC-SVG-20010904/DTD/svg10.dtd">
<svg version="1.0" xmlns="http://www.w3.org/2000/svg"
 width="512.000000pt" height="512.000000pt" viewBox="0 0 512.000000 512.000000"
 preserveAspectRatio="xMidYMid meet">
<metadata>
Created by potrace 1.14, written by Peter Selinger 2001-2017
</metadata>
<g transform="translate(0.000000,512.000000) scale(0.100000,-0.100000)"
fill="#000000" stroke="none">
<path d="M455 5101 c-189 -90 -201 -97 -270 -166 -69 -69 -90 -103 -159 -259
l-26 -58 0 -2058 0 -2058 26 -58 c70 -158 90 -190 159 -259 68 -68 92 -83 256
-159 l56 -26 2063 0 2063 0 56 26 c164 76 188 91 256 159 68 68 83 92 159 257
l26 57 0 2061 0 2061 -26 57 c-76 165 -91 189 -159 257 -68 68 -92 83 -256
159 l-56 26 -2064 0 c-2007 0 -2065 -1 -2104 -19z m1532 -1233 c6 -7 15 -31
21 -53 12 -44 36 -116 62 -185 25 -66 50 -139 65 -193 7 -26 18 -53 23 -60 6
-7 14 -30 18 -52 4 -22 15 -56 25 -75 11 -19 19 -44 19 -55 0 -11 7 -33 15
-48 8 -16 19 -47 25 -70 6 -23 17 -55 25 -72 13 -30 33 -86 60 -175 8 -25 28
-83 45 -130 17 -47 37 -105 44 -130 21 -68 47 -141 62 -175 7 -16 18 -50 23
-75 6 -25 16 -61 24 -80 8 -19 18 -58 22 -86 7 -58 39 -104 59 -84 6 6 16 39
23 73 10 56 25 109 53 190 13 35 28 80 49 142 10 28 25 73 35 100 9 28 23 70
31 95 18 57 43 133 65 190 22 57 47 133 65 190 23 76 47 143 66 186 11 23 19
50 19 60 0 11 9 36 20 57 11 20 20 47 20 60 0 12 9 38 19 58 11 20 23 53 26
73 4 20 16 53 26 73 11 21 19 45 19 55 0 10 9 37 19 60 11 24 23 60 26 81 11
69 4 68 446 65 l394 -3 0 -1275 0 -1275 -265 -2 c-146 -2 -271 1 -278 5 -10 7
-12 183 -10 913 3 1102 3 1067 -6 1076 -13 13 -23 -17 -30 -84 -4 -36 -13 -77
-20 -92 -7 -14 -19 -48 -25 -76 -7 -27 -16 -54 -21 -60 -4 -5 -11 -26 -15 -45
-4 -19 -13 -48 -21 -65 -8 -16 -20 -52 -28 -80 -22 -76 -46 -147 -61 -180 -8
-16 -19 -49 -25 -72 -6 -23 -17 -54 -25 -70 -8 -15 -15 -36 -15 -46 0 -10 -8
-37 -19 -60 -10 -23 -22 -58 -26 -77 -4 -19 -13 -44 -21 -55 -7 -11 -16 -38
-20 -60 -4 -22 -15 -56 -25 -75 -11 -19 -19 -44 -19 -55 -1 -11 -9 -38 -20
-60 -11 -22 -19 -49 -20 -59 0 -10 -8 -37 -19 -60 -19 -43 -43 -110 -66 -186
-23 -76 -47 -143 -66 -188 -11 -23 -19 -49 -19 -58 0 -21 -41 -117 -54 -126
-6 -4 -108 -8 -226 -8 -118 0 -220 4 -226 8 -16 10 -40 61 -49 102 -4 19 -16
51 -26 70 -11 19 -19 43 -19 53 0 10 -7 32 -16 49 -9 17 -22 51 -29 77 -22 76
-46 145 -60 171 -7 14 -16 41 -20 60 -4 19 -16 52 -26 72 -11 21 -19 45 -19
54 0 9 -7 30 -14 47 -18 39 -52 136 -71 200 -7 26 -18 53 -23 60 -5 7 -14 30
-20 52 -6 22 -25 78 -42 125 -17 47 -36 103 -42 125 -6 22 -15 45 -20 52 -5 7
-16 34 -23 60 -8 26 -26 80 -40 118 -53 142 -83 241 -89 294 -8 58 -21 91 -36
91 -7 0 -10 -341 -10 -962 0 -529 -3 -965 -8 -970 -5 -5 -118 -7 -253 -6
l-244 3 -3 1265 c-1 696 0 1271 3 1278 3 9 95 12 413 12 316 0 412 -3 419 -12z"/>
</g>
</svg>
